<?xml version="1.0" encoding="iso-8859-1"?>
<!-- Generator: Adobe Illustrator 19.0.0, SVG Export Plug-In . SVG Version: 6.00 Build 0)  -->
<svg version="1.1" id="Capa_1" xmlns="http://www.w3.org/2000/svg" xmlns:xlink="http://www.w3.org/1999/xlink" x="0px" y="0px"
	 viewBox="0 0 468.293 468.293" style="enable-background:new 0 0 468.293 468.293;" xml:space="preserve">
<path style="fill:#E1E6E9;" d="M267.263,224.306l68.943-53.851c15.116-11.805,23.951-29.918,23.951-49.098V34.339H108.136v87.018
	c0,19.18,8.835,37.293,23.951,49.098l68.943,53.851c6.401,5,6.401,14.683,0,19.683l-68.943,53.848
	c-15.116,11.808-23.951,29.918-23.951,49.098v87.021h252.021v-87.021c0-19.18-8.835-37.29-23.951-49.098l-68.943-53.848
	C260.862,238.988,260.862,229.306,267.263,224.306z"/>
<g>
	<path style="fill:#E56353;" d="M373.104,34.338H95.189V21.643C95.189,9.69,104.878,0,116.832,0h234.63
		c11.953,0,21.643,9.69,21.643,21.643V34.338z"/>
	<path style="fill:#E56353;" d="M373.104,433.955H95.189v12.695c0,11.953,9.69,21.643,21.643,21.643h234.63
		c11.953,0,21.643-9.69,21.643-21.643V433.955z"/>
</g>
<path style="fill:#DC8744;" d="M244.2,194.781l68.948-53.854c6.067-4.738,9.546-11.872,9.546-19.573V97.373H145.6v23.982
	c0,7.701,3.479,14.835,9.549,19.573l68.939,53.854c0.248,0.195,0.449,0.43,0.694,0.628v96.21c-0.243,0.198-0.443,0.433-0.691,0.625
	l-68.945,53.848c-6.067,4.738-9.546,11.872-9.546,19.573v49.555h177.095v-49.555c0-7.701-3.479-14.835-9.549-19.573l-68.948-53.854
	c-0.245-0.192-0.444-0.424-0.684-0.619v-96.216C243.755,195.208,243.954,194.973,244.2,194.781z"/>
<g>
</g>
<g>
</g>
<g>
</g>
<g>
</g>
<g>
</g>
<g>
</g>
<g>
</g>
<g>
</g>
<g>
</g>
<g>
</g>
<g>
</g>
<g>
</g>
<g>
</g>
<g>
</g>
<g>
</g>
</svg>
