<?xml version="1.0" encoding="iso-8859-1"?>
<!-- Generator: Adobe Illustrator 19.0.0, SVG Export Plug-In . SVG Version: 6.00 Build 0)  -->
<svg version="1.1" id="Capa_1" xmlns="http://www.w3.org/2000/svg" xmlns:xlink="http://www.w3.org/1999/xlink" x="0px" y="0px"
	 viewBox="0 0 512 512" style="enable-background:new 0 0 512 512;" xml:space="preserve">
<path style="fill:#FF9052;" d="M215.8,7.5c-55.108,0-99.78,44.672-99.78,99.781v39.485c6.668-6.181,16.156-9.541,25.417-8.305
	v-4.972c0-3.952,3.375-7.074,7.288-6.778c38.578,2.771,77.839-9.488,107.525-28.88c2.771-1.811,6.44-1.361,8.694,1.06
	c25.379,27.28,25.226,26.224,25.226,29.786v9.764c10.152-1.521,19.155,1.615,25.412,7.432v-38.592
	C315.58,52.172,270.909,7.5,215.8,7.5z"/>
<path style="fill:#FF8031;" d="M136.021,107.281c0-51.733,39.367-94.267,89.779-99.283c-3.289-0.327-6.625-0.497-10.001-0.497
	c-55.108,0-99.78,44.672-99.78,99.781v39.485c5.369-4.977,12.567-8.119,20.001-8.512V107.281z"/>
<g>
	<path style="fill:#E4EAF8;" d="M288.846,134.476v54.659c0,0.592-0.031,1.178-0.045,1.768c19.343,2.929,34.492-11.047,34.492-28.212
		C323.292,145.493,308.13,131.585,288.846,134.476z"/>
	<path style="fill:#E4EAF8;" d="M142.758,189.135v-54.638c-16.84-2.249-34.447,10.675-34.447,28.195
		c0,17.142,15.116,31.143,34.491,28.211C142.787,190.313,142.758,189.725,142.758,189.135z"/>
</g>
<g>
	<path style="fill:#C2C7D0;" d="M308.847,137.954c-5.608-3.173-12.489-4.605-20.001-3.479v54.659c0,0.593-0.031,1.178-0.045,1.768
		c7.536,1.141,14.431-0.292,20.046-3.473V137.954z"/>
	<path style="fill:#C2C7D0;" d="M142.759,187.433c-8.803-4.984-14.446-14.273-14.446-24.742c0-10.267,6.05-18.949,14.446-23.931
		v-4.263c-16.84-2.249-34.447,10.676-34.447,28.195c0,17.142,15.116,31.143,34.491,28.211c-0.014-0.59-0.043-1.177-0.043-1.767
		v-1.702H142.759z"/>
</g>
<path style="fill:#E4EAF8;" d="M216.863,261.117c-16.12,0-30.287-4.425-41.874-11.829v39.159l41.694,51.464l41.694-51.464v-40.264
	C246.565,256.331,232.266,261.117,216.863,261.117z"/>
<path style="fill:#C2C7D0;" d="M194.991,258.186c-7.299-2.035-13.999-5.062-20.001-8.898v39.159l20.001,24.689V258.186z"/>
<path style="fill:#FFFFFF;" d="M368.676,328.52l-110.299-42.716l-41.694,51.464l-41.695-51.464L64.806,328.52
	c0,0-40.795,16.771-40.795,63.277v103.212c0,5.241,4.249,9.49,9.49,9.49h366.562c5.195,0,9.408-4.212,9.408-9.408V391.797
	C409.471,345.291,368.676,328.52,368.676,328.52z"/>
<path style="fill:#ABFFDB;" d="M44.012,495.009V381.796c0-30.278,17.29-47.949,29.358-56.597l-8.565,3.32
	c0,0-40.795,16.771-40.795,63.277v103.212c0,5.241,4.249,9.49,9.49,9.49h20.001C48.261,504.5,44.012,500.25,44.012,495.009z"/>
<path style="fill:#FFFFFF;" d="M264.941,96.249c-2.252-2.42-5.922-2.871-8.694-1.06c-29.685,19.392-68.946,31.651-107.525,28.88
	c-3.913-0.296-7.288,2.825-7.288,6.778v59.61c0,38.311,30.019,73.303,75.427,73.303c40.42,0,73.304-32.884,73.304-73.303v-64.422
	C290.167,122.473,290.32,123.528,264.941,96.249z"/>
<path style="fill:#E4EAF8;" d="M161.437,190.457v-66.019c-4.237,0.047-8.479-0.065-12.713-0.369
	c-3.913-0.297-7.288,2.825-7.288,6.778v59.61c0,38.311,30.019,73.303,75.427,73.303c3.028,0,6.007-0.206,8.94-0.565
	C189.586,258.77,161.437,227.848,161.437,190.457z"/>
<g>
	<path style="fill:#ABFFDB;" d="M267.026,363.713l31.178-62.485l-39.826-15.424l-41.694,51.464l40.649,28.87
		C260.623,368.475,265.223,367.324,267.026,363.713z"/>
	<path style="fill:#ABFFDB;" d="M166.4,363.713l-31.178-62.485l39.826-15.424l41.694,51.464l-40.649,28.87
		C172.801,368.475,168.202,367.324,166.4,363.713z"/>
</g>
<path style="fill:#6DC296;" d="M216.738,337.303v-0.036l-0.025,0.018l-0.025-0.018v0.036l-29.566,20.998l13.975,21.033
	c11.275,0,19.958,0,31.231,0l13.975-21.033L216.738,337.303z"/>
<path style="fill:#ABFFDB;" d="M179.912,504.5h73.6l-21.185-125.164c-11.275,0-19.958,0-31.231,0L179.912,504.5z"/>
<path style="fill:#5FA77E;" d="M226.713,344.389l-9.976-7.084v-0.036l-0.025,0.018l-0.025-0.018v0.036l-29.566,20.998l13.975,21.033
	c5.27,0,8.555,0,20.001,0l-10.881-16.376c-1.724-2.595-1.076-6.091,1.464-7.896L226.713,344.389z"/>
<path style="fill:#92E0C0;" d="M201.097,379.335l-21.184,125.164h20.001l21.184-125.164
	C209.648,379.335,206.377,379.335,201.097,379.335z"/>
<path style="fill:#6DC296;" d="M391.111,464.161c-53.379,0-96.807-43.428-96.807-96.807s43.428-96.807,96.807-96.807
	s96.807,43.428,96.807,96.807S444.49,464.161,391.111,464.161z"/>
<path style="fill:#5FA77E;" d="M314.305,367.354c0-50.003,38.108-91.273,86.806-96.293c-57.407-5.92-106.807,39.302-106.807,96.293
	c0,53.379,43.428,96.808,96.807,96.808c3.376,0,6.712-0.175,10.001-0.514C352.413,458.627,314.305,417.357,314.305,367.354z"/>
<path style="fill:#ABFFDB;" d="M391.111,296.93c-38.832,0-70.424,31.592-70.424,70.424s31.592,70.424,70.424,70.424
	s70.424-31.592,70.424-70.424S429.943,296.93,391.111,296.93z"/>
<path style="fill:#92E0C0;" d="M340.688,367.354c0-35.436,26.313-64.829,60.424-69.701c-42.711-6.103-80.425,27.194-80.425,69.701
	c0,38.832,31.592,70.424,70.424,70.424c3.396,0,6.731-0.256,10.001-0.722C367.001,432.183,340.688,402.79,340.688,367.354z"/>
<path style="fill:#6DC296;" d="M386.509,391.784c-1.896,0-3.792-0.714-5.25-2.144l-17.589-17.239
	c-2.958-2.899-3.006-7.648-0.106-10.607c2.9-2.958,7.647-3.006,10.607-0.107l12.354,12.108l29.487-28.742
	c2.969-2.892,7.715-2.83,10.607,0.136c2.891,2.966,2.83,7.714-0.136,10.606l-34.737,33.858
	C390.288,391.075,388.398,391.784,386.509,391.784z"/>
<g>
	<path style="fill:#474D54;" d="M409.971,264.759c-4.07-0.748-7.982,1.949-8.73,6.024c-0.747,4.074,1.95,7.982,6.024,8.73
		c42.391,7.772,73.157,44.715,73.157,87.84c0,43.255-30.91,79.425-71.8,87.584c-0.171,0.021-0.341,0.047-0.512,0.08
		c-5.458,1.055-10.994,1.607-16.46,1.641c-0.178,0.001-0.356,0.002-0.534,0.002c-10.58,0-20.736-1.849-30.162-5.241
		c-0.343-0.123-0.685-0.249-1.025-0.376c-0.682-0.255-1.359-0.518-2.033-0.789c-0.337-0.135-0.673-0.273-1.007-0.413
		c-0.837-0.348-1.668-0.709-2.491-1.083c-0.33-0.149-0.658-0.3-0.985-0.454c-0.491-0.229-0.98-0.464-1.466-0.702
		c-0.324-0.159-0.647-0.32-0.969-0.482c-0.322-0.163-0.643-0.327-0.963-0.494c-0.799-0.416-1.592-0.844-2.377-1.283
		c-0.157-0.088-0.314-0.176-0.47-0.265c-0.313-0.177-0.624-0.357-0.935-0.538c-0.155-0.09-0.31-0.182-0.465-0.273
		c-0.619-0.366-1.232-0.74-1.841-1.12c-0.609-0.38-1.213-0.768-1.812-1.163c-24.26-15.983-40.304-43.469-40.304-74.632v-0.007
		c0-0.161,0-0.322,0.001-0.482c0-0.042,0.001-0.085,0.001-0.127c0.001-0.126,0.002-0.251,0.003-0.377
		c0-0.028,0.001-0.057,0.001-0.085c0.002-0.142,0.004-0.284,0.006-0.426c0-0.011,0-0.022,0.001-0.032
		c0.18-10.58,2.21-20.768,5.805-30.222c3.167-8.274,7.6-16.094,13.235-23.269c0.224-0.286,0.425-0.585,0.604-0.895
		c13.045-16.252,31.742-27.928,53.501-31.917c4.074-0.747,6.771-4.655,6.024-8.73c-0.747-4.075-4.66-6.774-8.73-6.024
		c-23.908,4.383-44.652,16.71-59.712,33.957l-46.61-18.051v-26.008c16.907-12.939,28.576-32.392,31.22-54.577
		c8.408-0.378,16.217-3.408,22.542-8.849c7.928-6.818,12.476-16.739,12.476-27.219c0-8.858-3.247-17.315-9.035-23.834v-32.898
		C323.145,48.126,275.019,0,215.865,0s-107.28,48.126-107.28,107.28v33.754c-5.853,6.465-9.031,14.48-9.031,22.978
		c0,10.482,4.547,20.404,12.476,27.223c6.322,5.438,14.128,8.467,22.536,8.845c2.071,17.544,9.789,33.832,22.247,46.628
		c3.318,3.408,6.911,6.486,10.741,9.22v24.741L62.159,321.526c-0.047,0.018-0.094,0.037-0.141,0.056
		c-1.855,0.763-45.443,19.268-45.443,70.214V495.01c0,9.369,7.621,16.99,16.99,16.99h366.562c9.323,0,16.908-7.584,16.908-16.908
		v-26.69c45.018-11.554,78.389-52.477,78.389-101.048C495.425,316.985,459.486,273.838,409.971,264.759z M287.879,305.247
		l-27.019,54.149l-33.252-23.618c-0.022-0.016-0.011-0.008,0,0l25.449-31.414l7.772-9.594L287.879,305.247z M216.777,346.489
		l19.319,13.72l-7.725,11.627h-23.187l-7.724-11.627L216.777,346.489z M216.777,325.318l-34.222-42.243V264.36
		c9.871,4.237,20.711,6.59,32.06,6.872l0.059,0.001c0.16,0.004,0.32,0.007,0.48,0.01c0.028,0,0.057,0.001,0.085,0.002
		c0.133,0.002,0.266,0.004,0.399,0.006c0.059,0.001,0.118,0.002,0.177,0.002c0.118,0.001,0.236,0.002,0.354,0.003
		c0.067,0,0.135,0.001,0.202,0.002c0.186,0.001,0.371,0.002,0.557,0.002c0.181,0,0.362,0,0.542-0.002
		c0.059,0,0.119-0.001,0.178-0.001c0.117-0.001,0.234-0.002,0.351-0.004c0.076-0.001,0.153-0.002,0.229-0.004
		c0.108-0.002,0.216-0.003,0.324-0.005c0.062-0.001,0.125-0.003,0.187-0.004c0.117-0.002,0.234-0.005,0.351-0.008
		c0.069-0.002,0.137-0.004,0.206-0.006c0.111-0.003,0.222-0.006,0.332-0.01c0.07-0.002,0.141-0.005,0.211-0.008
		c0.111-0.004,0.222-0.008,0.333-0.012c0.066-0.003,0.132-0.006,0.198-0.008c0.117-0.005,0.234-0.01,0.351-0.016
		c0.06-0.003,0.119-0.005,0.179-0.008c0.125-0.006,0.249-0.012,0.374-0.019c0.052-0.003,0.105-0.006,0.157-0.009
		c0.132-0.007,0.265-0.015,0.397-0.023c0.046-0.003,0.091-0.006,0.137-0.008c0.139-0.009,0.278-0.018,0.417-0.027
		c0.04-0.002,0.079-0.005,0.119-0.008c0.162-0.011,0.325-0.023,0.487-0.035c0.011-0.001,0.022-0.002,0.033-0.002
		c1.653-0.124,3.292-0.298,4.915-0.52c0.001,0,0.002,0,0.003,0c8.109-1.11,15.839-3.427,23.001-6.764v19.398L216.777,325.318z
		 M310.699,148.869c4.129,3.924,6.479,9.387,6.479,15.144c0,6.104-2.645,11.88-7.255,15.845c-3.41,2.933-7.606,4.68-12.191,5.135
		v-41.958c3.43,0.341,6.643,1.404,9.473,3.145c0.017,0.011,0.035,0.021,0.053,0.032c0.094,0.059,0.188,0.118,0.282,0.178
		c1.057,0.68,2.06,1.458,2.999,2.331C310.591,148.773,310.645,148.821,310.699,148.869z M134.001,184.994
		c-4.585-0.454-8.782-2.2-12.19-5.131c-4.611-3.966-7.256-9.743-7.256-15.85c0-5.247,2.258-10.243,6.38-14.17
		c0.084-0.071,0.167-0.145,0.248-0.22c3.553-3.294,8.132-5.479,12.817-6.247v41.619H134.001z M139.197,119.823
		c-0.209,0.173-0.414,0.351-0.614,0.537c-0.565,0.523-1.082,1.09-1.55,1.69c-0.001,0.001-0.002,0.003-0.004,0.005
		c-0.115,0.148-0.227,0.298-0.337,0.45c-0.002,0.003-0.005,0.006-0.007,0.009c-0.106,0.148-0.21,0.299-0.31,0.451
		c-0.005,0.008-0.011,0.016-0.016,0.024c-0.05,0.076-0.099,0.152-0.147,0.228c-0.001,0.002-0.002,0.004-0.004,0.006
		c-0.047,0.074-0.092,0.149-0.138,0.223c-0.005,0.008-0.009,0.016-0.014,0.023c-0.045,0.075-0.09,0.15-0.133,0.226
		c-0.006,0.01-0.012,0.021-0.017,0.031c-0.04,0.07-0.08,0.14-0.119,0.211c-0.004,0.008-0.009,0.016-0.013,0.024
		c-0.041,0.074-0.081,0.149-0.12,0.224c-0.008,0.016-0.016,0.031-0.025,0.047c-0.036,0.069-0.071,0.138-0.106,0.208
		c-0.004,0.008-0.008,0.016-0.012,0.024c-0.036,0.073-0.072,0.147-0.107,0.22c-0.009,0.02-0.019,0.04-0.028,0.059
		c-0.035,0.073-0.069,0.146-0.102,0.22c-0.006,0.013-0.011,0.026-0.017,0.038c-0.029,0.064-0.057,0.127-0.084,0.192
		c-0.01,0.022-0.019,0.045-0.029,0.067c-0.031,0.072-0.061,0.145-0.09,0.217c-0.008,0.019-0.015,0.038-0.023,0.057
		c-0.025,0.062-0.049,0.124-0.073,0.186c-0.008,0.02-0.015,0.04-0.023,0.059c-0.028,0.073-0.055,0.146-0.081,0.219
		c-0.009,0.024-0.017,0.048-0.026,0.072c-0.021,0.058-0.041,0.116-0.061,0.174c-0.008,0.023-0.016,0.046-0.023,0.069
		c-0.024,0.071-0.047,0.143-0.07,0.214c-0.009,0.028-0.018,0.056-0.026,0.084c-0.018,0.059-0.036,0.119-0.054,0.178
		c-0.006,0.021-0.013,0.042-0.019,0.063c-0.021,0.071-0.041,0.142-0.06,0.214c-0.008,0.028-0.015,0.056-0.023,0.084
		c-0.02,0.073-0.039,0.146-0.057,0.219c-0.004,0.016-0.008,0.032-0.012,0.048c-0.017,0.067-0.033,0.134-0.048,0.201
		c-0.006,0.025-0.012,0.051-0.018,0.076c-0.017,0.076-0.034,0.153-0.05,0.229c-0.004,0.018-0.007,0.036-0.011,0.054
		c-0.014,0.066-0.027,0.132-0.039,0.198c-0.003,0.014-0.006,0.029-0.008,0.043c-3.634,0.332-7.229,1.187-10.661,2.524v-23.465
		c0-50.883,41.397-92.28,92.279-92.28s92.28,41.397,92.28,92.28v22.794c-3.308-1.176-6.802-1.881-10.412-2.096v-2.008
		c0.002-5.751-0.838-6.646-14.869-21.605c-0.431-0.46-0.878-0.935-1.338-1.427c-2.492-2.657-5.423-5.785-8.871-9.484
		c-0.698-0.749-1.416-1.521-2.157-2.317c-4.607-4.95-11.97-5.983-17.733-2.573c-0.186,0.11-0.371,0.225-0.553,0.344
		c-10.225,6.679-21.196,12.252-32.562,16.624c-0.194,0.074-0.388,0.149-0.582,0.223c-2.312,0.88-4.64,1.711-6.982,2.491
		c-0.011,0.004-0.023,0.008-0.034,0.011c-20.319,6.765-41.618,9.732-61.955,8.382c-0.247-0.016-0.494-0.033-0.741-0.051
		C145.696,116.312,142.03,117.484,139.197,119.823z M149.038,192.555c0.007-0.167,0.009-0.335,0.005-0.504l-0.021-0.685
		c-0.01-0.303-0.021-0.605-0.021-0.908v-58.856c18.433,1.236,37.568-0.762,56.198-5.672c18.842-4.965,37.164-12.909,53.72-23.494
		c0.334-0.213,0.667-0.427,0.999-0.643c0.648,0.696,1.278,1.373,1.892,2.031c0.175,0.188,0.349,0.374,0.521,0.559
		c0.213,0.229,0.425,0.456,0.635,0.68c0.047,0.05,0.093,0.1,0.14,0.15c0.138,0.148,0.275,0.294,0.411,0.44
		c2.755,2.952,5.153,5.511,7.241,7.737c0.397,0.423,0.782,0.834,1.157,1.234c0.937,0.999,1.826,1.947,2.665,2.842
		c0.069,0.074,0.138,0.148,0.207,0.221c0.19,0.203,0.377,0.402,0.561,0.599c3.661,3.914,6.233,6.705,7.31,8.07
		c0.025,0.031,0.049,0.062,0.072,0.092v64.009c0,0.293-0.012,0.584-0.021,0.875l-0.021,0.718c-0.004,0.188-0.001,0.375,0.008,0.56
		c-0.692,21.413-11.665,40.273-28.132,51.795c-0.129,0.078-0.257,0.16-0.382,0.246c-9.795,6.756-21.074,10.679-32.856,11.461
		c-0.019,0.001-0.037,0.002-0.056,0.004c-0.394,0.026-0.788,0.048-1.182,0.067c-0.022,0.001-0.044,0.002-0.067,0.003
		c-0.197,0.009-0.395,0.018-0.592,0.025c-0.003,0-0.006,0-0.009,0c-0.184,0.007-0.368,0.013-0.552,0.018
		c-0.04,0.001-0.08,0.002-0.12,0.003c-0.186,0.005-0.372,0.01-0.558,0.013c-0.019,0-0.038,0-0.057,0.001
		c-0.17,0.003-0.339,0.006-0.509,0.007c-0.046,0-0.092,0.001-0.138,0.001c-0.186,0.002-0.372,0.003-0.559,0.003
		c-0.201,0-0.402-0.001-0.602-0.002c-0.039,0-0.078-0.001-0.117-0.001c-9.628-0.089-18.872-1.961-27.256-5.482
		C164.24,240.289,149.841,216.324,149.038,192.555z M172.681,294.789l33.228,41.015c0.011-0.008,0.022-0.016,0,0l-33.217,23.593
		l-27.019-54.149L172.681,294.789z M101.009,496.999v-89.216c0-4.142-3.357-7.5-7.5-7.5c-4.143,0-7.5,3.358-7.5,7.5v89.216H33.566
		c-1.097,0-1.989-0.893-1.989-1.989V391.797c0-40.352,34.082-55.462,36.1-56.32l63.946-24.791l28.13,56.376c0,0,0,0,0.001,0.001
		c1.839,3.685,5.185,6.371,9.18,7.37c1.131,0.283,2.279,0.422,3.421,0.422c2.891,0,5.738-0.892,8.145-2.601l4.722-3.354
		l8.048,12.114L173.639,497L101.009,496.999L101.009,496.999z M332.605,496.999h-72.69l-6.732-39.777
		c-0.69-4.083-4.551-6.83-8.647-6.144c-4.084,0.691-6.834,4.563-6.143,8.647l6.309,37.274h-55.848l18.646-110.163h18.557
		l6.412,37.886c0.691,4.084,4.558,6.835,8.647,6.144c4.084-0.691,6.834-4.563,6.143-8.647l-6.974-41.207l8.049-12.114l4.722,3.354
		c2.406,1.709,5.254,2.602,8.146,2.602c1.142,0,2.29-0.139,3.421-0.422c3.994-0.999,7.34-3.685,9.18-7.37
		c0.001,0,0.001,0,0.001-0.001l28.128-56.373l1.277,0.495c-3.309,5.177-6.17,10.66-8.533,16.387
		c-0.007,0.018-0.015,0.036-0.022,0.053c-0.03,0.073-0.06,0.146-0.09,0.22c-4.796,11.642-7.415,24.095-7.72,36.965
		c-0.003,0.143-0.007,0.286-0.009,0.428c-0.002,0.106-0.004,0.212-0.006,0.318c-0.004,0.252-0.007,0.504-0.01,0.756
		c-0.001,0.072-0.001,0.144-0.002,0.216c-0.002,0.275-0.004,0.551-0.004,0.827l0,0c0,31.678,14.195,60.104,36.558,79.25
		c0.159,0.136,0.318,0.271,0.477,0.406c0.319,0.27,0.639,0.538,0.961,0.803c0.322,0.265,0.646,0.53,0.971,0.792
		c0.488,0.393,0.979,0.782,1.475,1.167c0.165,0.128,0.33,0.256,0.496,0.383c0.332,0.254,0.665,0.507,1,0.757
		c0.669,0.501,1.345,0.994,2.027,1.479c0.605,0.43,1.215,0.854,1.829,1.272v43.336H332.605z M402.036,495.092
		c0,1.052-0.855,1.907-1.907,1.907h-52.523v-34.851l0.049,0.023c2.302,1.06,4.649,2.038,7.037,2.93
		c0.398,0.149,0.797,0.295,1.198,0.439c0.601,0.216,1.203,0.427,1.809,0.632c0.807,0.274,1.619,0.538,2.435,0.792
		c9.793,3.052,20.199,4.697,30.984,4.697c3.686,0,7.328-0.193,10.918-0.568L402.036,495.092L402.036,495.092z"/>
	<path style="fill:#474D54;" d="M227.609,335.779L227.609,335.779C227.631,335.794,227.62,335.787,227.609,335.779z"/>
	<path style="fill:#474D54;" d="M205.91,335.804L205.91,335.804C205.898,335.812,205.887,335.82,205.91,335.804z"/>
</g>
<g>
</g>
<g>
</g>
<g>
</g>
<g>
</g>
<g>
</g>
<g>
</g>
<g>
</g>
<g>
</g>
<g>
</g>
<g>
</g>
<g>
</g>
<g>
</g>
<g>
</g>
<g>
</g>
<g>
</g>
</svg>
