<?xml version="1.0" encoding="iso-8859-1"?>
<!-- Generator: Adobe Illustrator 19.0.0, SVG Export Plug-In . SVG Version: 6.00 Build 0)  -->
<svg version="1.1" id="Capa_1" xmlns="http://www.w3.org/2000/svg" xmlns:xlink="http://www.w3.org/1999/xlink" x="0px" y="0px"
	 viewBox="0 0 512 512" style="enable-background:new 0 0 512 512;" xml:space="preserve">
<path style="fill:#D1462A;" d="M443.681,296.398c-70.658-38.783-52.846-208.042-52.846-208.042H121.165
	c0,0,17.812,169.259-52.846,208.042c-5.719,3.148-7.615,10.448-3.922,15.829c16.243,23.705,66.594,76.16,191.602,70.016
	c125.008,6.144,175.36-46.31,191.604-70.016C451.295,306.845,449.4,299.546,443.681,296.398z"/>
<rect x="205.855" y="307.173" style="fill:#E3A76F;" width="100.288" height="115.898"/>
<rect x="255.999" y="307.173" style="fill:#F2BB88;" width="50.144" height="115.898"/>
<path style="fill:#3E9DC3;" d="M333.258,356.288c-19.415,0.442-21.12-1.059-23.612,1.435L266.6,400.779
	c-5.851,5.861-15.35,5.861-21.201,0l-43.386-43.396c-0.7-0.7-1.652-1.094-2.644-1.095c-18.435-0.003-22.469-0.061-26.635,0.197
	c-53.116,3.097-95.237,47.151-95.237,101.057v43.992c0,5.778,4.687,10.465,10.476,10.465h336.054
	c5.789,0,10.476-4.687,10.476-10.465v-43.992C434.502,401.173,388.699,356.288,333.258,356.288z"/>
<g>
	<path style="fill:#A6D2E3;" d="M434.504,457.544v43.99c0,5.774-4.69,10.464-10.476,10.464H298.678l41.833-155.432
		C393.048,360.276,434.504,404.061,434.504,457.544z"/>
	<path style="fill:#A6D2E3;" d="M214.588,511.999H87.97c-5.786,0-10.476-4.69-10.476-10.464v-43.99
		c0-53.906,42.119-97.964,95.237-101.057L214.588,511.999z"/>
</g>
<path style="fill:#F2BB88;" d="M372.656,169.596v59.269c0,54.062-42.474,98.667-95.695,102.107c-2.193,0.146-4.406,0.218-6.63,0.218
	h-28.663c-56.276,0-102.325-46.039-102.325-102.325v-59.269c0-56.276,46.049-102.325,102.325-102.325h28.663
	c2.224,0,4.438,0.073,6.63,0.218C330.182,70.929,372.656,115.545,372.656,169.596z"/>
<path style="fill:#F2D1A5;" d="M372.656,169.596v59.269c0,54.062-42.474,98.667-95.695,102.107
	c-53.22-3.44-95.705-48.045-95.705-102.107v-59.269c0-54.052,42.485-98.667,95.705-102.107
	C330.182,70.929,372.656,115.545,372.656,169.596z"/>
<path style="fill:#3993B7;" d="M216.508,300.315h-23.751c-46.626,0-84.559-37.933-84.559-84.559v-0.451
	c0-4.305,3.49-7.794,7.794-7.794s7.794,3.49,7.794,7.794v0.451c0,38.031,30.94,68.97,68.97,68.97h23.751
	c4.305,0,7.794,3.49,7.794,7.794S220.812,300.315,216.508,300.315z"/>
<path style="fill:#EA552D;" d="M412.439,44.2v84.429c0,17.491-14.3,31.801-31.791,31.801h-1.32
	c-17.491,0-31.791-14.311-31.791-31.801v-11.515c0-2.255-1.715-3.409-3.814-2.588c-70.794,27.759-131.871,32.653-173.753,31.095
	c-33.215-1.247-59.508-28.496-59.508-61.742V66.585c0-28.372,17.979-52.742,43.098-62.283C160.866,1.528,168.785,0,177.037,0
	h114.287c24.88,0,46.631,14.092,57.679,34.69c4.064-12.876,16.15-22.282,30.326-22.282h1.32
	C398.139,12.409,412.439,26.719,412.439,44.2z"/>
<path style="fill:#F76937;" d="M412.439,44.2v80.937c-15.558-2.037-27.675-15.433-27.675-31.521V82.101
	c0-2.255-1.715-3.419-3.814-2.588c-70.794,27.759-131.871,32.653-173.753,31.084c-33.215-1.237-59.508-28.496-59.508-61.732V31.562
	c0-9.696,2.099-18.925,5.872-27.26C160.866,1.528,168.785,0,177.037,0h114.287c24.88,0,46.631,14.092,57.679,34.69
	c4.064-12.876,16.15-22.282,30.326-22.282h1.32C398.139,12.409,412.439,26.719,412.439,44.2z"/>
<g>
	<circle style="fill:#7B5341;" cx="191.368" cy="181.579" r="15.755"/>
	<circle style="fill:#7B5341;" cx="326.866" cy="181.579" r="15.755"/>
	<path style="fill:#7B5341;" d="M270.398,255.577h-16.94c-13.035,0-23.641-10.606-23.641-23.641v-61.352
		c0-4.305,3.49-7.794,7.794-7.794s7.794,3.49,7.794,7.794v61.354c0,4.44,3.612,8.052,8.052,8.052h16.94
		c4.305,0,7.794,3.49,7.794,7.794S274.703,255.577,270.398,255.577z"/>
	<path style="fill:#7B5341;" d="M260.039,303.002c-7.372,0-13.835-1.195-19.195-2.807c-16.758-5.038-26.575-15.161-26.985-15.59
		c-2.974-3.112-2.864-8.045,0.247-11.02c3.102-2.967,8.019-2.865,10.997,0.222c1.304,1.333,30.78,30.527,75.293-0.953
		c3.516-2.486,8.379-1.652,10.864,1.863c2.486,3.515,1.651,8.38-1.863,10.864C290.612,298.867,273.751,303.002,260.039,303.002z"/>
</g>
<g>
	<path style="fill:#4B5055;" d="M161.23,181.184v42.173c0,1.258-0.073,2.505-0.218,3.731c-1.86,15.963-15.516,28.444-31.957,28.444
		c-8.844,0-16.888-3.617-22.729-9.447c-5.83-5.841-9.447-13.884-9.447-22.729v-42.173c0-13.136,7.981-24.495,19.33-29.484
		c3.939-1.736,8.283-2.692,12.845-2.692C146.753,149.009,161.23,163.485,161.23,181.184z"/>
	<path style="fill:#4B5055;" d="M427.882,181.184v42.173c0,1.258-0.073,2.505-0.218,3.731c-0.863,7.358-4.24,13.988-9.239,18.998
		c-5.83,5.83-13.874,9.447-22.729,9.447c-17.699,0-32.175-14.477-32.175-32.175v-42.173c0-13.147,7.981-24.506,19.33-29.494
		c3.939-1.725,8.283-2.681,12.845-2.681C413.395,149.009,427.882,163.485,427.882,181.184z"/>
</g>
<g>
	<path style="fill:#5A5F64;" d="M161.23,181.184v42.173c0,1.258-0.073,2.505-0.218,3.731c-3.939,1.725-8.283,2.692-12.845,2.692
		c-8.854,0-16.898-3.627-22.729-9.457c-5.83-5.83-9.447-13.874-9.447-22.718v-42.173c0-1.258,0.073-2.505,0.218-3.731
		c3.939-1.736,8.283-2.692,12.845-2.692C146.753,149.009,161.23,163.485,161.23,181.184z"/>
	<path style="fill:#5A5F64;" d="M427.882,181.184v42.173c0,1.258-0.073,2.505-0.218,3.731c-3.939,1.725-8.283,2.692-12.845,2.692
		c-17.699,0-32.186-14.487-32.186-32.175v-42.173c0-1.268,0.073-2.515,0.218-3.741c3.939-1.725,8.283-2.681,12.845-2.681
		C413.395,149.009,427.882,163.485,427.882,181.184z"/>
</g>
<path style="fill:#4B5055;" d="M271.89,290.649c0,12.045-9.852,21.897-21.897,21.897h-29.64c-6.017,0-11.494-2.463-15.454-6.433
	c-3.97-3.97-6.433-9.436-6.433-15.464c0-12.045,9.852-21.887,21.887-21.887h29.64c6.028,0,11.494,2.463,15.464,6.423
	c3.315,3.315,5.591,7.69,6.236,12.554C271.827,288.695,271.89,289.661,271.89,290.649z"/>
<path style="fill:#5A5F64;" d="M271.692,287.739H245.15c-6.017,0-11.494-2.463-15.454-6.433c-3.315-3.315-5.591-7.68-6.236-12.544
	h26.532c6.028,0,11.494,2.463,15.464,6.423C268.772,278.5,271.048,282.875,271.692,287.739z"/>
<path style="fill:#8CC5DB;" d="M201.428,356.901c-0.603-0.395-1.32-0.613-2.058-0.613c-18.436,0-22.469-0.062-26.636,0.197
	c-53.116,3.097-95.237,47.151-95.237,101.057v43.992c0,5.778,4.687,10.465,10.476,10.465h33.776
	c-5.789,0-10.476-4.687-10.476-10.465v-43.992C111.273,405.362,150.733,362.42,201.428,356.901z"/>
<path style="fill:#3993B7;" d="M201.335,356.849c-0.104-0.073-0.208-0.125-0.312-0.177c-0.042-0.021-0.083-0.042-0.125-0.052
	c-0.083-0.042-0.177-0.083-0.26-0.104c-0.125-0.052-0.26-0.094-0.395-0.114c-0.083-0.031-0.156-0.042-0.239-0.052
	c-0.052-0.021-0.104-0.021-0.166-0.031c-0.156-0.021-0.312-0.031-0.468-0.031c-18.436,0-22.469-0.062-26.636,0.197l1.923,7.129
	c8.418-3.398,17.397-5.695,26.761-6.714C201.387,356.881,201.366,356.86,201.335,356.849z"/>
<g>
</g>
<g>
</g>
<g>
</g>
<g>
</g>
<g>
</g>
<g>
</g>
<g>
</g>
<g>
</g>
<g>
</g>
<g>
</g>
<g>
</g>
<g>
</g>
<g>
</g>
<g>
</g>
<g>
</g>
</svg>
