<svg height="512pt" viewBox="0 0 512 512" width="512pt" xmlns="http://www.w3.org/2000/svg"><path d="m203.3125 155.3125 36.6875-36.6875v137.375h32v-137.375l36.6875 36.6875 22.625-22.625-75.3125-75.3125-75.3125 75.3125zm0 0" fill="#57565c"/><path d="m240 288h32v32h-32zm0 0" fill="#57565c"/><path d="m192 0h128v32h-128zm0 0" fill="#57565c"/><path d="m96 352h320v160h-320zm0 0" fill="#ffcb5a"/><g fill="#b0b4b9"><path d="m448 352h64v32h-64zm0 0"/><path d="m0 352h64v32h-64zm0 0"/><path d="m384 256h32v64h-32zm0 0"/><path d="m96 256h32v64h-32zm0 0"/></g><path d="m96 480h320v32h-320zm0 0" fill="#fba61f"/><path d="m128 416v-32h32v32zm0 0" fill="#fff"/><path d="m192 416v-32h32v32zm0 0" fill="#fff"/><path d="m128 480v-32h32v32zm0 0" fill="#fff"/></svg>