<?xml version="1.0" encoding="iso-8859-1"?>
<!-- Generator: Adobe Illustrator 19.0.0, SVG Export Plug-In . SVG Version: 6.00 Build 0)  -->
<svg version="1.1" id="Layer_1" xmlns="http://www.w3.org/2000/svg" xmlns:xlink="http://www.w3.org/1999/xlink" x="0px" y="0px"
	 viewBox="0 0 511.999 511.999" style="enable-background:new 0 0 511.999 511.999;" xml:space="preserve">
<path style="fill:#72ED77;" d="M359.007,118.7c0-56.898-46.125-103.023-103.023-103.023L235.064,118.7l20.921,103.023
	C312.882,221.723,359.007,175.598,359.007,118.7z"/>
<path style="fill:#FEBA00;" d="M359.007,393.3c0-56.898-46.125-103.022-103.023-103.022L235.064,393.3l20.921,103.023
	C312.882,496.322,359.007,450.198,359.007,393.3z"/>
<path style="fill:#4CDFFD;" d="M451.317,142.854l19.014-6.104l-9.585-29.855l-72.207,23.181l23.181,72.207l29.855-9.585
	l-7.628-23.761c13.55,8.975,24.902,21.063,33.136,35.617c13.741,24.291,17.202,52.479,9.743,79.371
	c-9.887,35.641-37.089,62.849-72.77,72.781l8.409,30.206c22.163-6.168,42.55-17.947,58.958-34.063
	c16.927-16.626,29.244-37.561,35.618-60.543C523.127,234.318,498.894,174.512,451.317,142.854z"/>
<path style="fill:#7DE6FE;" d="M70.422,319.322l7.617,23.729c-36.598-24.35-55.24-70.354-42.869-114.959
	c9.886-35.64,37.088-62.847,72.77-72.78l-8.409-30.206c-22.162,6.168-42.55,17.947-58.959,34.063
	c-16.927,16.626-29.244,37.563-35.617,60.543c-16.084,57.988,8.15,117.793,55.726,149.451l-19.014,6.104l9.585,29.855l72.206-23.181
	l-23.179-72.207L70.422,319.322z"/>
<path style="fill:#9BFE9E;" d="M152.962,118.7c0,56.898,46.125,103.023,103.023,103.023V15.676
	C199.087,15.676,152.962,61.801,152.962,118.7z"/>
<path style="fill:#FEE899;" d="M152.962,393.3c0,56.898,46.125,103.023,103.023,103.023V290.276
	C199.087,290.276,152.962,336.401,152.962,393.3z"/>
<path style="fill:#41D447;" d="M271.663,177.932h3.91c20.653,0,37.455-16.802,37.455-37.455s-16.802-37.456-37.455-37.456h-3.91
	V90.823h29.002V59.467h-29.002V47.541h-15.678l-10.46,71.158l10.46,71.158h15.678V177.932z M271.663,134.377h3.91
	c3.363,0,6.099,2.736,6.099,6.1s-2.735,6.099-6.099,6.099h-3.91V134.377z"/>
<path style="fill:#72ED77;" d="M240.307,47.541v11.927h-3.909c-20.653,0-37.455,16.802-37.455,37.455s16.802,37.455,37.455,37.455
	h3.909v12.199h-29.001v31.356h29.001v11.926h15.678V47.541H240.307z M240.307,103.021h-3.909c-3.363,0-6.099-2.735-6.099-6.099
	s2.735-6.099,6.099-6.099h3.909V103.021z"/>
<g>
	<polygon style="fill:#FEA730;" points="289.179,457.805 289.179,426.449 255.985,426.449 245.524,442.127 255.985,457.805 	"/>
	<polygon style="fill:#FEA730;" points="255.985,408.978 304.77,408.978 304.77,377.622 255.985,377.622 245.524,393.3 	"/>
	<polygon style="fill:#FEA730;" points="289.179,360.15 289.179,328.794 255.985,328.794 245.524,344.472 255.985,360.15 	"/>
</g>
<path style="fill:#FEBA00;" d="M235.829,377.622v-2.612c0-8.193,6.665-14.86,14.859-14.86h5.297v-31.356h-5.297
	c-25.483,0-46.215,20.733-46.215,46.216v2.612h-15.505v31.356h15.505v2.612c0,25.483,20.732,46.215,46.215,46.215h5.297v-31.356
	h-5.297c-8.193,0-14.859-6.665-14.859-14.859v-2.612h20.156v-31.356H235.829z"/>
<g>
</g>
<g>
</g>
<g>
</g>
<g>
</g>
<g>
</g>
<g>
</g>
<g>
</g>
<g>
</g>
<g>
</g>
<g>
</g>
<g>
</g>
<g>
</g>
<g>
</g>
<g>
</g>
<g>
</g>
</svg>
