<svg xmlns="http://www.w3.org/2000/svg" height="512pt" version="1.1" viewBox="-9 0 512 512.00176" width="512pt">
<g id="surface1">
<path d="M 494.347656 132.414062 L 467.722656 114.757812 L 441.382812 132.414062 L 414.449219 114.757812 L 388.414062 132.414062 L 370.761719 114.757812 L 370.761719 0 L 441.382812 0 C 470.632812 0 494.347656 23.714844 494.347656 52.964844 Z M 494.347656 132.414062 " style=" stroke:none;fill-rule:nonzero;fill:rgb(100%,65.490196%,20%);fill-opacity:1;" />
<path d="M 247.175781 459.035156 C 247.175781 488.285156 270.886719 512 300.140625 512 C 270.886719 512 247.175781 488.285156 247.175781 459.035156 Z M 247.175781 459.035156 " style=" stroke:none;fill-rule:nonzero;fill:rgb(87.843137%,87.843137%,88.627451%);fill-opacity:1;" />
<path d="M 220.691406 61.792969 C 220.691406 47.167969 232.546875 35.308594 247.175781 35.308594 L 247.175781 0 L 176.554688 0 C 147.304688 0 123.589844 23.714844 123.589844 52.964844 L 123.589844 512 L 247.175781 512 L 247.175781 88.277344 C 232.546875 88.277344 220.691406 76.417969 220.691406 61.792969 Z M 220.691406 61.792969 " style=" stroke:none;fill-rule:nonzero;fill:rgb(100%,76.862745%,46.666667%);fill-opacity:1;" />
<path d="M 247.175781 0 L 247.175781 35.3125 C 261.800781 35.3125 273.65625 47.167969 273.65625 61.792969 C 273.65625 76.417969 261.800781 88.277344 247.175781 88.277344 L 247.175781 512 L 317.792969 512 C 347.046875 512 370.761719 488.289062 370.761719 459.035156 L 370.761719 54.820312 C 370.761719 48.546875 372.429688 42.390625 375.597656 36.980469 L 397.242188 0 Z M 247.175781 0 " style=" stroke:none;fill-rule:nonzero;fill:rgb(100%,85.490196%,66.666667%);fill-opacity:1;" />
<path d="M 220.691406 61.792969 C 220.691406 76.417969 232.546875 88.277344 247.175781 88.277344 L 247.175781 35.3125 C 232.546875 35.3125 220.691406 47.167969 220.691406 61.792969 Z M 220.691406 61.792969 " style=" stroke:none;fill-rule:nonzero;fill:rgb(100%,47.45098%,33.72549%);fill-opacity:1;" />
<path d="M 273.65625 61.792969 C 273.65625 47.167969 261.800781 35.308594 247.175781 35.308594 L 247.175781 88.273438 C 261.800781 88.277344 273.65625 76.417969 273.65625 61.792969 Z M 273.65625 61.792969 " style=" stroke:none;fill-rule:nonzero;fill:rgb(100%,47.45098%,33.72549%);fill-opacity:1;" />
<path d="M 247.175781 459.035156 L 247.175781 406.070312 L 220.691406 423.722656 L 203.035156 406.070312 L 176.640625 423.722656 L 150.070312 406.070312 L 123.703125 423.722656 L 97.105469 406.070312 L 70.621094 423.722656 L 44.140625 406.070312 L 17.65625 423.722656 L 0 406.070312 L 0 459.035156 C 0 488.285156 23.714844 512 52.964844 512 L 300.140625 512 C 270.886719 512 247.175781 488.285156 247.175781 459.035156 Z M 247.175781 459.035156 " style=" stroke:none;fill-rule:nonzero;fill:rgb(100%,65.490196%,20%);fill-opacity:1;" />
<path d="M 247.175781 97.105469 C 227.671875 97.105469 211.863281 81.292969 211.863281 61.792969 C 211.863281 42.292969 227.671875 26.480469 247.175781 26.480469 C 266.675781 26.480469 282.484375 42.292969 282.484375 61.792969 C 282.484375 81.292969 266.675781 97.105469 247.175781 97.105469 Z M 247.175781 44.136719 C 237.421875 44.136719 229.519531 52.042969 229.519531 61.792969 C 229.519531 71.542969 237.421875 79.449219 247.175781 79.449219 C 256.925781 79.449219 264.828125 71.542969 264.828125 61.792969 C 264.828125 52.042969 256.925781 44.136719 247.175781 44.136719 Z M 247.175781 44.136719 " style=" stroke:none;fill-rule:nonzero;fill:rgb(100%,58.039216%,47.058824%);fill-opacity:1;" />
<path d="M 264.828125 150.070312 L 158.898438 150.070312 C 154.023438 150.070312 150.070312 146.117188 150.070312 141.242188 C 150.070312 136.367188 154.023438 132.414062 158.898438 132.414062 L 264.828125 132.414062 C 269.707031 132.414062 273.65625 136.367188 273.65625 141.242188 C 273.65625 146.117188 269.707031 150.070312 264.828125 150.070312 Z M 264.828125 150.070312 " style=" stroke:none;fill-rule:nonzero;fill:rgb(100%,71.372549%,33.333333%);fill-opacity:1;" />
<path d="M 335.449219 150.070312 L 300.140625 150.070312 C 295.265625 150.070312 291.3125 146.117188 291.3125 141.242188 C 291.3125 136.367188 295.265625 132.414062 300.140625 132.414062 L 335.449219 132.414062 C 340.324219 132.414062 344.277344 136.367188 344.277344 141.242188 C 344.277344 146.117188 340.324219 150.070312 335.449219 150.070312 Z M 335.449219 150.070312 " style=" stroke:none;fill-rule:nonzero;fill:rgb(100%,71.372549%,33.333333%);fill-opacity:1;" />
<path d="M 264.828125 203.035156 L 158.898438 203.035156 C 154.023438 203.035156 150.070312 199.082031 150.070312 194.207031 C 150.070312 189.332031 154.023438 185.378906 158.898438 185.378906 L 264.828125 185.378906 C 269.707031 185.378906 273.65625 189.332031 273.65625 194.207031 C 273.65625 199.082031 269.707031 203.035156 264.828125 203.035156 Z M 264.828125 203.035156 " style=" stroke:none;fill-rule:nonzero;fill:rgb(100%,71.372549%,33.333333%);fill-opacity:1;" />
<path d="M 335.449219 203.035156 L 300.140625 203.035156 C 295.265625 203.035156 291.3125 199.082031 291.3125 194.207031 C 291.3125 189.332031 295.265625 185.378906 300.140625 185.378906 L 335.449219 185.378906 C 340.324219 185.378906 344.277344 189.332031 344.277344 194.207031 C 344.277344 199.082031 340.324219 203.035156 335.449219 203.035156 Z M 335.449219 203.035156 " style=" stroke:none;fill-rule:nonzero;fill:rgb(100%,71.372549%,33.333333%);fill-opacity:1;" />
<path d="M 264.828125 256 L 158.898438 256 C 154.023438 256 150.070312 252.046875 150.070312 247.171875 C 150.070312 242.296875 154.023438 238.34375 158.898438 238.34375 L 264.828125 238.34375 C 269.707031 238.34375 273.65625 242.296875 273.65625 247.171875 C 273.65625 252.046875 269.707031 256 264.828125 256 Z M 264.828125 256 " style=" stroke:none;fill-rule:nonzero;fill:rgb(100%,71.372549%,33.333333%);fill-opacity:1;" />
<path d="M 335.449219 256 L 300.140625 256 C 295.265625 256 291.3125 252.046875 291.3125 247.171875 C 291.3125 242.296875 295.265625 238.34375 300.140625 238.34375 L 335.449219 238.34375 C 340.324219 238.34375 344.277344 242.296875 344.277344 247.171875 C 344.277344 252.046875 340.324219 256 335.449219 256 Z M 335.449219 256 " style=" stroke:none;fill-rule:nonzero;fill:rgb(100%,71.372549%,33.333333%);fill-opacity:1;" />
<path d="M 264.828125 308.964844 L 158.898438 308.964844 C 154.023438 308.964844 150.070312 305.011719 150.070312 300.136719 C 150.070312 295.261719 154.023438 291.3125 158.898438 291.3125 L 264.828125 291.3125 C 269.707031 291.3125 273.65625 295.261719 273.65625 300.136719 C 273.65625 305.011719 269.707031 308.964844 264.828125 308.964844 Z M 264.828125 308.964844 " style=" stroke:none;fill-rule:nonzero;fill:rgb(100%,71.372549%,33.333333%);fill-opacity:1;" />
<path d="M 335.449219 308.964844 L 300.140625 308.964844 C 295.265625 308.964844 291.3125 305.011719 291.3125 300.136719 C 291.3125 295.261719 295.265625 291.3125 300.140625 291.3125 L 335.449219 291.3125 C 340.324219 291.3125 344.277344 295.261719 344.277344 300.136719 C 344.277344 305.011719 340.324219 308.964844 335.449219 308.964844 Z M 335.449219 308.964844 " style=" stroke:none;fill-rule:nonzero;fill:rgb(100%,71.372549%,33.333333%);fill-opacity:1;" />
<path d="M 264.828125 361.929688 L 158.898438 361.929688 C 154.023438 361.929688 150.070312 357.980469 150.070312 353.105469 C 150.070312 348.226562 154.023438 344.277344 158.898438 344.277344 L 264.828125 344.277344 C 269.707031 344.277344 273.65625 348.226562 273.65625 353.105469 C 273.65625 357.980469 269.707031 361.929688 264.828125 361.929688 Z M 264.828125 361.929688 " style=" stroke:none;fill-rule:nonzero;fill:rgb(100%,71.372549%,33.333333%);fill-opacity:1;" />
<path d="M 335.449219 361.929688 L 300.140625 361.929688 C 295.265625 361.929688 291.3125 357.980469 291.3125 353.105469 C 291.3125 348.226562 295.265625 344.277344 300.140625 344.277344 L 335.449219 344.277344 C 340.324219 344.277344 344.277344 348.226562 344.277344 353.105469 C 344.277344 357.980469 340.324219 361.929688 335.449219 361.929688 Z M 335.449219 361.929688 " style=" stroke:none;fill-rule:nonzero;fill:rgb(100%,71.372549%,33.333333%);fill-opacity:1;" />
</g>
</svg>