<?xml version="1.0" encoding="iso-8859-1"?>
<!-- Generator: Adobe Illustrator 19.0.0, SVG Export Plug-In . SVG Version: 6.00 Build 0)  -->
<svg version="1.1" id="Layer_1" xmlns="http://www.w3.org/2000/svg" xmlns:xlink="http://www.w3.org/1999/xlink" x="0px" y="0px"
	 viewBox="0 0 392.504 392.504" style="enable-background:new 0 0 392.504 392.504;" xml:space="preserve">
<path style="fill:#56ACE0;" d="M150.797,82.395L92.938,24.537C65.787,42.379,38.635,66.428,39.153,76.319
	c4.461,85.204,174.352,255.03,259.556,259.556h0.129c10.279,0,33.875-26.634,51.588-53.786L292.502,224.1l-37.236,37.236
	c-4.073,4.073-11.313,4.073-15.386,0L113.561,135.018c-4.267-4.267-4.267-11.119,0-15.386L150.797,82.395z"/>
<path style="fill:#FFC10D;" d="M274.53,85.951c-4.073,4.073-11.313,4.073-15.386,0l-1.034-1.034v42.408h42.408l-1.034-1.034
	c-4.267-4.267-4.267-11.119,0-15.386l41.632-41.632l-24.889-24.889L274.53,85.951z"/>
<g>
	<path style="fill:#194F82;" d="M247.185,149.369h79.58c10.602-0.517,14.222-12.412,7.758-18.618l-11.895-11.895l41.632-41.632
		c4.59-4.978,3.943-11.572,0-15.386L323.92,21.498c-4.267-4.267-11.119-4.267-15.386,0l-41.632,41.632l-11.895-11.895
		c-6.723-6.4-18.618-2.715-18.618,7.758v79.58C236.26,144.521,241.108,149.369,247.185,149.369z M258.046,85.24l1.034,1.034
		c4.073,4.073,11.313,4.073,15.386,0l41.632-41.632l24.954,24.954l-41.632,41.632c-2.004,2.004-3.168,4.784-3.168,7.758
		c0,2.909,1.164,5.624,3.168,7.758l1.034,1.034H258.11V85.24H258.046z"/>
	<path style="fill:#194F82;" d="M371.953,273.038l-71.758-71.758c-4.267-4.267-11.119-4.267-15.386,0l-37.236,37.236
		L136.575,127.583l37.236-37.236c4.073-4.267,4.655-11.378,0-15.386L102.118,3.203c-3.556-3.556-9.115-4.267-13.382-1.552
		c-17.131,10.537-72.921,47.127-71.37,76.024c5.107,96.97,183.143,275.006,280.113,280.113c0.453,0,12.929,1.939,31.677-15.321
		c-0.776,4.461-2.457,8.792-5.107,12.8c-6.4,9.826-16.743,15.386-28.509,15.386H83.5c-6.012,0-10.925,4.848-10.925,10.925
		c0,6.012,4.848,10.925,10.925,10.925h212.105c18.941,0,36.396-9.438,46.739-25.277c9.051-13.834,11.442-30.578,6.853-46.222
		c11.055-13.705,20.04-27.604,24.372-34.715C376.219,282.153,375.508,276.593,371.953,273.038z M298.773,336.068h-0.129
		c-85.269-4.461-255.03-174.287-259.556-259.556c-0.453-9.826,26.634-33.939,53.851-51.782l57.859,57.859l-37.236,37.301
		c-4.267,4.267-4.267,11.119,0,15.386L239.88,261.595c4.267,4.267,11.119,4.267,15.386,0l37.236-37.236l57.859,57.859
		C332.648,309.434,309.052,336.068,298.773,336.068z"/>
</g>
<g>
</g>
<g>
</g>
<g>
</g>
<g>
</g>
<g>
</g>
<g>
</g>
<g>
</g>
<g>
</g>
<g>
</g>
<g>
</g>
<g>
</g>
<g>
</g>
<g>
</g>
<g>
</g>
<g>
</g>
</svg>
