<?xml version="1.0"?>
<svg xmlns="http://www.w3.org/2000/svg" viewBox="0 0 64 64" width="512" height="512"><path d="m15.02124 30.43365a4 4 0 1 0 -4.04248 0 4.99525 4.99525 0 0 0 -2.97876 4.56635v10h10v-10a4.99525 4.99525 0 0 0 -2.97876-4.56635z" fill="#fccc38"/><path d="m23.92871 52.245v-2.49006l-2.01025-.88708a9.43881 9.43881 0 0 0 -.4704-1.50556l1.10773-1.91095a11.2348 11.2348 0 0 0 -1.442-2.01489l-2.12708.48712a9.17912 9.17912 0 0 0 -1.24713-.92242l-.20343-2.223a10.73251 10.73251 0 0 0 -2.31429-.77816l-1.44958 1.682h-1.5445l-1.44952-1.682a10.73126 10.73126 0 0 0 -2.31427.77808l-.20343 2.223a9.19731 9.19731 0 0 0 -1.24713.92236l-2.127-.48718a11.24062 11.24062 0 0 0 -1.44207 2.015l1.10764 1.9108a9.43441 9.43441 0 0 0 -.47033 1.50568l-2.01038.88714v2.49012l2.01025.88708a9.44717 9.44717 0 0 0 .4704 1.50562l-1.10773 1.91082a11.23711 11.23711 0 0 0 1.442 2.015l2.12708-.48713a9.17835 9.17835 0 0 0 1.24713.92243l.20343 2.223a10.74245 10.74245 0 0 0 2.31429.77818l1.44964-1.682h1.54444l1.44958 1.682a10.74617 10.74617 0 0 0 2.31421-.77814l.20343-2.223a9.20439 9.20439 0 0 0 1.24713-.92236l2.127.48706a11.23889 11.23889 0 0 0 1.44214-2.01489l-1.10771-1.91085a9.43844 9.43844 0 0 0 .4704-1.50556zm-10.92871 3.155a4.4 4.4 0 1 1 4.4-4.4 4.4 4.4 0 0 1 -4.4 4.4z" fill="#17afdc"/><path d="m34.02124 9.43365a4 4 0 1 0 -4.04248 0 4.99525 4.99525 0 0 0 -2.97876 4.56635v10h10v-10a4.99525 4.99525 0 0 0 -2.97876-4.56635z" fill="#f4393d"/><path d="m42.92871 30.245v-2.49006l-2.01025-.88708a9.43881 9.43881 0 0 0 -.4704-1.50556l1.10773-1.91095a11.2348 11.2348 0 0 0 -1.442-2.01489l-2.12708.48712a9.17912 9.17912 0 0 0 -1.24713-.92242l-.20343-2.223a10.73251 10.73251 0 0 0 -2.31429-.77816l-1.44958 1.682h-1.5445l-1.44952-1.682a10.73126 10.73126 0 0 0 -2.31427.77808l-.20343 2.223a9.19731 9.19731 0 0 0 -1.24713.92236l-2.127-.48718a11.24062 11.24062 0 0 0 -1.44207 2.01495l1.10764 1.91085a9.43441 9.43441 0 0 0 -.47033 1.50568l-2.01038.88714v2.49012l2.01025.88708a9.44717 9.44717 0 0 0 .4704 1.50562l-1.10773 1.91082a11.23711 11.23711 0 0 0 1.442 2.015l2.12708-.48713a9.17835 9.17835 0 0 0 1.24713.92243l.20343 2.223a10.74245 10.74245 0 0 0 2.31429.77818l1.44964-1.682h1.54444l1.44958 1.682a10.74617 10.74617 0 0 0 2.31421-.77814l.20343-2.223a9.20439 9.20439 0 0 0 1.24713-.92236l2.127.48706a11.23889 11.23889 0 0 0 1.44214-2.01489l-1.10771-1.91085a9.43844 9.43844 0 0 0 .4704-1.50556zm-10.92871 3.155a4.4 4.4 0 1 1 4.4-4.4 4.4 4.4 0 0 1 -4.4 4.4z" fill="#5358a1"/><path d="m53.02124 31.43365a4 4 0 1 0 -4.04248 0 4.99525 4.99525 0 0 0 -2.97876 4.56635v10h10v-10a4.99525 4.99525 0 0 0 -2.97876-4.56635z" fill="#fccc38"/><path d="m61.92871 52.245v-2.49006l-2.01025-.88708a9.43881 9.43881 0 0 0 -.4704-1.50556l1.10773-1.91095a11.2348 11.2348 0 0 0 -1.442-2.01489l-2.12708.48712a9.17912 9.17912 0 0 0 -1.24713-.92242l-.20343-2.223a10.73251 10.73251 0 0 0 -2.31429-.77816l-1.44958 1.682h-1.5445l-1.44952-1.682a10.73126 10.73126 0 0 0 -2.31427.77808l-.20343 2.223a9.19731 9.19731 0 0 0 -1.24713.92236l-2.127-.48718a11.24062 11.24062 0 0 0 -1.44207 2.015l1.10764 1.9108a9.43441 9.43441 0 0 0 -.47033 1.50568l-2.01038.88714v2.49012l2.01025.88708a9.44717 9.44717 0 0 0 .4704 1.50562l-1.10773 1.91082a11.23711 11.23711 0 0 0 1.442 2.015l2.12708-.48713a9.17835 9.17835 0 0 0 1.24713.92243l.20343 2.223a10.74245 10.74245 0 0 0 2.31429.77818l1.44964-1.682h1.54444l1.44958 1.682a10.74617 10.74617 0 0 0 2.31421-.77814l.20343-2.223a9.20439 9.20439 0 0 0 1.24713-.92236l2.127.48706a11.23889 11.23889 0 0 0 1.44214-2.01489l-1.10771-1.91085a9.43844 9.43844 0 0 0 .4704-1.50556zm-10.92871 3.155a4.4 4.4 0 1 1 4.4-4.4 4.4 4.4 0 0 1 -4.4 4.4z" fill="#8bb4fc"/><g fill="#848a8c"><path d="m9.46484 21.73877-1.80175-.86816a27.03133 27.03133 0 0 1 13.82666-13.17188l.77929 1.8418a25.03144 25.03144 0 0 0 -12.8042 12.19824z"/><path d="m32.02832 62a27.008 27.008 0 0 1 -8.02832-1.21387l.59375-1.91015a25.26015 25.26015 0 0 0 15.29443-.13575l.62793 1.89844a26.97779 26.97779 0 0 1 -8.48779 1.36133z"/><path d="m54.65918 22a24.97332 24.97332 0 0 0 -13.17773-12.563l.75878-1.85058a26.96693 26.96693 0 0 1 14.23047 13.5669z"/></g><path d="m51 45a6 6 0 1 0 6 6 6 6 0 0 0 -6-6zm0 10.4a4.4 4.4 0 1 1 4.4-4.4 4.4 4.4 0 0 1 -4.4 4.4z" fill="#b5cff4"/><path d="m32 23a6 6 0 1 0 6 6 6 6 0 0 0 -6-6zm0 10.4a4.4 4.4 0 1 1 4.4-4.4 4.4 4.4 0 0 1 -4.4 4.4z" fill="#6570d6"/><path d="m13 45a6 6 0 1 0 6 6 6 6 0 0 0 -6-6zm0 10.4a4.4 4.4 0 1 1 4.4-4.4 4.4 4.4 0 0 1 -4.4 4.4z" fill="#5ac8e2"/></svg>
