<?xml version="1.0" encoding="iso-8859-1"?>
<!-- Generator: Adobe Illustrator 19.0.0, SVG Export Plug-In . SVG Version: 6.00 Build 0)  -->
<svg version="1.1" id="Capa_1" xmlns="http://www.w3.org/2000/svg" xmlns:xlink="http://www.w3.org/1999/xlink" x="0px" y="0px"
	 viewBox="0 0 512 512" style="enable-background:new 0 0 512 512;" xml:space="preserve">
<path style="fill:#7B5341;" d="M279.117,87.534L28.366,133.667c0,0-65.233,170.737,24.024,230.972c8.339,0,187.492,0,196.216,0
	C337.861,304.403,279.117,87.534,279.117,87.534z"/>
<g>
	<path style="fill:#F2BB88;" d="M53.655,226.087L53.655,226.087c-13.216,0-24.029-10.813-24.029-24.029v-9.084
		c0-13.216,10.813-24.029,24.029-24.029l0,0c13.216,0,24.029,10.813,24.029,24.029v9.084
		C77.684,215.273,66.871,226.087,53.655,226.087z"/>
	<path style="fill:#F2BB88;" d="M255.192,226.087L255.192,226.087c-13.216,0-24.029-10.813-24.029-24.029v-9.084
		c0-13.216,10.813-24.029,24.029-24.029l0,0c13.216,0,24.029,10.813,24.029,24.029v9.084
		C279.221,215.273,268.409,226.087,255.192,226.087z"/>
</g>
<rect x="111.038" y="283.036" style="fill:#E3A76F;" width="86.764" height="100.261"/>
<rect x="154.425" y="283.036" style="fill:#F2BB88;" width="43.377" height="100.261"/>
<path style="fill:#06638D;" d="M308.84,413.128v38.05c0,4.995-4.054,9.05-9.06,9.05H9.07c-5.006,0-9.07-4.054-9.07-9.05v-38.05
	c0-46.635,36.437-84.747,82.389-87.426c1.593-0.103,3.186-0.145,4.789-0.155c0.134-0.01,0.279-0.01,0.414-0.01h16.655
	c1.621,0,3.174,0.643,4.32,1.789l0,0l36.685,36.696c5.068,5.068,13.28,5.068,18.348,0l36.685-36.695
	c1.146-1.146,2.699-1.79,4.32-1.79h16.655c0.134,0,0.414,0.01,0.414,0.01s3.93,0.072,5.864,0.228
	C272.983,328.981,308.84,366.856,308.84,413.128z"/>
<path style="fill:#1B87B3;" d="M308.84,413.128v38.05c0,4.995-4.054,9.05-9.06,9.05H47.679c-5.006,0-9.06-4.054-9.06-9.05v-38.05
	c0-42.332,30.025-77.652,69.947-85.802l36.685,36.696c5.068,5.068,13.28,5.068,18.348,0l38.474-38.485h19.186
	c0.134,0,0.414,0.01,0.414,0.01s3.93,0.072,5.864,0.228C272.983,328.981,308.84,366.856,308.84,413.128z"/>
<path style="fill:#F2BB88;" d="M255.338,117.454v85.451c0,50.1-37.006,91.977-85.026,99.651c-5.182,0.827-10.487,1.262-15.886,1.262
	c-55.509,0-100.923-45.414-100.923-100.913v-85.451c0-23.074,18.886-41.95,41.95-41.95h117.947
	C236.463,75.505,255.338,94.38,255.338,117.454z"/>
<path style="fill:#F2D1A5;" d="M255.338,117.454v85.451c0,50.1-37.006,91.977-85.026,99.651
	c-48.021-7.674-85.026-49.551-85.026-99.651v-85.451c0-23.074,18.875-41.95,41.939-41.95h86.175
	C236.463,75.505,255.338,94.38,255.338,117.454z"/>
<g>
	<circle style="fill:#7B5341;" cx="98.751" cy="175.132" r="13.476"/>
	<circle style="fill:#7B5341;" cx="214.661" cy="175.132" r="13.476"/>
	<path style="fill:#7B5341;" d="M166.359,239.514h-14.49c-11.751,0-21.312-9.561-21.312-21.312v-52.479
		c0-4.284,3.473-7.757,7.757-7.757s7.757,3.473,7.757,7.757v52.479c0,3.197,2.601,5.798,5.798,5.798h14.49
		c4.284,0,7.757,3.473,7.757,7.757C174.116,236.041,170.643,239.514,166.359,239.514z"/>
</g>
<path style="fill:#9C6A53;" d="M287.359,55.554V83.83c0,6.071-3.516,11.615-9.05,14.138
	c-80.703,36.871-148.923,48.259-193.975,51.03c-18.865,1.158-33.665,0.817-43.625,0.197c-8.202-0.507-14.583-7.312-14.583-15.524
	V74.915c0-31.679,25.919-57.598,57.598-57.598h98.865c21.523,0,40.336,12.184,49.893,30.004
	c3.527-11.139,13.973-19.268,26.239-19.268h1.138C274.989,28.053,287.359,40.422,287.359,55.554z"/>
<path style="fill:#AD7B64;" d="M287.359,55.554V83.83c0,6.071-3.516,11.615-9.05,14.138
	c-80.703,36.871-148.923,48.259-193.975,51.03c-7.374-1.272-12.887-7.695-12.887-15.328V74.915
	c0-31.679,25.919-57.598,57.598-57.598h53.544c21.523,0,40.336,12.184,49.893,30.004c3.527-11.139,13.973-19.268,26.239-19.268
	h1.138C274.989,28.053,287.359,40.422,287.359,55.554z"/>
<g>
	<circle style="fill:#06638D;" cx="154.425" cy="397.829" r="8.991"/>
	<circle style="fill:#06638D;" cx="154.425" cy="430.718" r="8.991"/>
</g>
<path style="fill:#7FBED7;" d="M487.395,189.159v305.52H292.261c-13.476-0.352-24.346-11.191-24.74-24.667v-0.734l0.01-280.119
	c0-11.17,9.05-20.22,20.22-20.22h179.423C478.345,168.94,487.395,177.989,487.395,189.159z"/>
<path style="fill:#A6D2E3;" d="M487.395,189.159v305.52H323.816c-13.476-0.352-24.357-11.191-24.74-24.667
	c0-0.248-0.01-0.486-0.01-0.734l0.021-280.119c0-11.17,9.05-20.22,20.22-20.22h147.868
	C478.345,168.94,487.395,177.989,487.395,189.159z"/>
<path style="fill:#3993B7;" d="M499.108,424.363h-169.23c-7.12,0-12.892,5.772-12.892,12.892v32.979
	c0,12.434-9.401,22.972-21.463,24.448l0,0h190.958v-0.02c0.246,0.006,0.492,0.02,0.738,0.02h0.332
	c13.446,0,24.448-11.001,24.448-24.448v-32.979C512,430.136,506.228,424.363,499.108,424.363z"/>
<circle style="fill:#FFEA06;" cx="338.203" cy="248.068" r="42.674"/>
<path style="fill:#D2C100;" d="M360.218,231.406c-4.285,0-7.757,3.472-7.757,7.757c0,7.86-6.395,14.254-14.254,14.254
	s-14.255-6.395-14.255-14.254c0-4.285-3.472-7.757-7.757-7.757s-7.757,3.472-7.757,7.757c0,16.414,13.354,29.768,29.769,29.768
	c16.414,0,29.768-13.354,29.768-29.768C367.975,234.879,364.503,231.406,360.218,231.406z"/>
<circle style="fill:#F44545;" cx="338.203" cy="359.571" r="42.674"/>
<path style="fill:#D63030;" d="M338.207,347.014c-16.415,0-29.769,13.354-29.769,29.768c0,4.285,3.472,7.757,7.757,7.757
	s7.757-3.472,7.757-7.757c0-7.86,6.396-14.254,14.255-14.254s14.254,6.395,14.254,14.254c0,4.285,3.472,7.757,7.757,7.757
	s7.757-3.472,7.757-7.757C367.975,360.369,354.621,347.014,338.207,347.014z"/>
<path style="fill:#1B87B3;" d="M424.063,269.805c-3.737,0-7.164-1.717-9.402-4.712l-12.467-16.689
	c-2.564-3.432-1.86-8.293,1.573-10.857c3.431-2.563,8.293-1.861,10.857,1.573l9.14,12.234l23.766-38.645
	c2.245-3.65,7.023-4.787,10.67-2.544c3.649,2.244,4.789,7.022,2.544,10.67l-26.678,43.379
	C431.912,267.717,428.172,269.805,424.063,269.805z"/>
<path style="fill:#7B5341;" d="M152.544,277.645c-6.416,0-12.038-1.04-16.701-2.442c-14.582-4.383-23.123-13.192-23.48-13.564
	c-2.589-2.707-2.493-7,0.215-9.589c2.699-2.582,6.977-2.494,9.569,0.193c1.136,1.16,26.782,26.561,65.512-0.829
	c3.059-2.163,7.29-1.438,9.453,1.622c2.163,3.058,1.437,7.29-1.622,9.453C179.146,274.047,164.475,277.645,152.544,277.645z"/>
<g>
</g>
<g>
</g>
<g>
</g>
<g>
</g>
<g>
</g>
<g>
</g>
<g>
</g>
<g>
</g>
<g>
</g>
<g>
</g>
<g>
</g>
<g>
</g>
<g>
</g>
<g>
</g>
<g>
</g>
</svg>
