<svg width="16px" height="16px" viewBox="-31 0 512 512" xmlns="http://www.w3.org/2000/svg"><path d="m180 90h-75v422c41.355469 0 75-33.644531 75-75l-40-143.5 40-143.5zm0 0" fill="#ff7666"/><path d="m30 90v60l40 143.5-40 143.5c0 41.355469 33.644531 75 75 75v-422zm0 0" fill="#ffa785"/><path d="m75 90 30 392c24.8125 0 45-20.1875 45-45v-347zm0 0" fill="#e00016"/><path d="m60 90v347c0 24.8125 20.1875 45 45 45v-392zm0 0" fill="#ff4547"/><path d="m180 150h-75l-40 143.5 40 143.5h75zm0 0" fill="#ffeaa6"/><path d="m30 150h75v287h-75zm0 0" fill="#fff9e8"/><path d="m140 0-30 60 30 60h70v-120zm0 0" fill="#ffc40f"/><path d="m105 0-30 60 30 60h35v-120zm0 0" fill="#ffd959"/><path d="m70 0-30 60 30 60h35v-120zm0 0" fill="#ffc40f"/><path d="m0 0h70v120h-70zm0 0" fill="#ffd959"/><path d="m420 90h-75v422c41.355469 0 75-33.644531 75-75l-40-143.5 40-143.5zm0 0" fill="#ff7666"/><path d="m270 90v60l40 143.5-40 143.5c0 41.355469 33.644531 75 75 75v-422zm0 0" fill="#ffa785"/><path d="m315 90 30 392c24.8125 0 45-20.1875 45-45v-347zm0 0" fill="#e00016"/><path d="m300 90v347c0 24.8125 20.1875 45 45 45v-392zm0 0" fill="#ff4547"/><path d="m420 150h-75l-40 143.5 40 143.5h75zm0 0" fill="#ffeaa6"/><path d="m270 150h75v287h-75zm0 0" fill="#fff9e8"/><path d="m380 0-30 60 30 60h70v-120zm0 0" fill="#c782ff"/><path d="m345 0-30 60 30 60h35v-120zm0 0" fill="#9571c9"/><path d="m310 0-30 60 30 60h35v-120zm0 0" fill="#c782ff"/><path d="m240 0h70v120h-70zm0 0" fill="#caa6fd"/></svg>