<svg height="511.99998pt" viewBox="1 1 511.99998 511.99998" width="511.99998pt" xmlns="http://www.w3.org/2000/svg"><path d="m0 0v512h512zm94.039062 417.960938v-190.925782l190.925782 190.925782zm0 0" fill="#f7d360"/><path d="m317.246094 422.476562h-19.96875c-4.332032 0-7.839844-3.511718-7.839844-7.839843s3.507812-7.835938 7.839844-7.835938h19.96875c4.332031 0 7.839844 3.507813 7.839844 7.835938s-3.507813 7.839843-7.839844 7.839843zm0 0" fill="#3c4b4f"/><path d="m473.867188 422.476562h-18.808594c-4.328125 0-7.835938-3.511718-7.835938-7.839843s3.507813-7.835938 7.835938-7.835938h18.808594c4.332031 0 7.839843 3.507813 7.839843 7.835938s-3.511719 7.839843-7.839843 7.839843zm0 0" fill="#3c4b4f"/><path d="m373.578125 444.335938v67.660156l-37.105469-57.210938zm0 0" fill="#566368"/><path d="m398.734375 444.335938v67.660156l37.101563-57.210938zm0 0" fill="#566368"/><path d="m373.574219 263.515625v191.269531h-56.328125v-247.042968zm0 0" fill="#e6e6e6"/><path d="m455.058594 195.066406v259.71875h-56.328125v-191.488281zm0 0" fill="#e6e6e6"/><path d="m317.246094 207.742188 56.328125 55.773437v20.730469c-22.453125-2.984375-42.285157-14.253906-56.328125-30.636719zm0 0" fill="#ccc"/><path d="m404.953125 137.050781v-32.085937l-38.753906-.007813v32.089844zm0 0" fill="#ccc"/><path d="m455.058594 195.066406v57.175782c-13.871094 16.832031-33.734375 28.539062-56.328125 31.839843v-20.785156zm0 0" fill="#ccc"/><path d="m455.058594 195.0625c0 38.375-31.109375 69.484375-69.484375 69.484375s-69.484375-31.109375-69.484375-69.484375 31.109375-69.488281 69.484375-69.488281 69.484375 31.113281 69.484375 69.488281zm0 0" fill="#fc5f61"/><path d="m414.421875 195.0625c0 15.929688-12.914063 28.847656-28.847656 28.847656-15.929688 0-28.847657-12.917968-28.847657-28.847656 0-15.933594 12.917969-28.847656 28.847657-28.847656 15.933593 0 28.847656 12.914062 28.847656 28.847656zm0 0" fill="#e6e6e6"/><path d="m404.300781 10.445312h-37.453125c-11.613281 0-21.023437 9.414063-21.023437 21.023438v77.5625h79.5v-77.5625c0-11.609375-9.410157-21.023438-21.023438-21.023438zm0 0" fill="#fc5f61"/><path d="m391.25 10.445312h-24.402344c-11.613281 0-21.023437 9.414063-21.023437 21.023438v77.5625h24.402343v-77.5625c0-11.609375 9.414063-21.023438 21.023438-21.023438zm0 0" fill="#e83842"/><path d="m495.832031 396.726562v35.816407c0 6.070312-4.914062 10.984375-10.980469 10.984375-6.0625 0-10.984374-4.914063-10.984374-10.984375v-35.816407c0-6.0625 4.921874-10.984374 10.984374-10.984374 3.035157 0 5.773438 1.226562 7.769532 3.222656 1.984375 1.984375 3.210937 4.734375 3.210937 7.761718zm0 0" fill="#3c4b4f"/><path d="m297.277344 396.726562v35.816407c0 6.070312-4.914063 10.984375-10.984375 10.984375-6.0625 0-10.984375-4.914063-10.984375-10.984375v-35.816407c0-6.0625 4.921875-10.984374 10.984375-10.984374 3.035156 0 5.785156 1.226562 7.769531 3.222656 1.984375 1.984375 3.214844 4.734375 3.214844 7.761718zm0 0" fill="#3c4b4f"/><path d="m495.832031 396.726562v11.410157c0 6.070312-4.914062 10.984375-10.980469 10.984375-6.0625 0-10.984374-4.914063-10.984374-10.984375v-11.410157c0-6.0625 4.921874-10.984374 10.984374-10.984374 3.035157 0 5.773438 1.226562 7.769532 3.222656 1.984375 1.984375 3.210937 4.734375 3.210937 7.761718zm0 0" fill="#566368"/><path d="m297.277344 396.726562v11.410157c0 6.070312-4.914063 10.984375-10.984375 10.984375-6.0625 0-10.984375-4.914063-10.984375-10.984375v-11.410157c0-6.0625 4.921875-10.984374 10.984375-10.984374 3.035156 0 5.785156 1.226562 7.769531 3.222656 1.984375 1.984375 3.214844 4.734375 3.214844 7.761718zm0 0" fill="#566368"/><path d="m372.761719 92.871094c-4.328125 0-7.835938-3.507813-7.835938-7.835938v-51.25c0-4.328125 3.507813-7.839844 7.835938-7.839844s7.835937 3.511719 7.835937 7.839844v51.25c0 4.328125-3.507812 7.835938-7.835937 7.835938zm0 0" fill="#e83842"/><path d="m398.386719 92.871094c-4.328125 0-7.835938-3.507813-7.835938-7.835938v-51.25c0-4.328125 3.507813-7.839844 7.835938-7.839844s7.835937 3.511719 7.835937 7.839844v51.25c0 4.328125-3.507812 7.835938-7.835937 7.835938zm0 0" fill="#e83842"/><g fill="#e58e13"><path d="m50.675781 473.621094v38.378906h-15.671875v-38.378906c0-4.335938 3.5-7.835938 7.835938-7.835938 4.328125 0 7.835937 3.5 7.835937 7.835938zm0 0"/><path d="m112.585938 473.621094v38.378906h-15.671876v-38.378906c0-4.335938 3.5-7.835938 7.835938-7.835938 4.328125 0 7.835938 3.5 7.835938 7.835938zm0 0"/><path d="m174.496094 473.621094v38.378906h-15.671875v-38.378906c0-4.335938 3.5-7.835938 7.835937-7.835938 4.328125 0 7.835938 3.5 7.835938 7.835938zm0 0"/><path d="m236.40625 473.621094v38.378906h-15.671875v-38.378906c0-4.335938 3.5-7.835938 7.835937-7.835938 4.328126 0 7.835938 3.5 7.835938 7.835938zm0 0"/><path d="m298.320312 473.621094v38.378906h-15.675781v-38.378906c0-4.335938 3.5-7.835938 7.835938-7.835938 4.328125 0 7.839843 3.5 7.839843 7.835938zm0 0"/></g></svg>