<?xml version="1.0" encoding="iso-8859-1"?>
<!-- Generator: Adobe Illustrator 19.0.0, SVG Export Plug-In . SVG Version: 6.00 Build 0)  -->
<svg version="1.1" id="Capa_1" xmlns="http://www.w3.org/2000/svg" xmlns:xlink="http://www.w3.org/1999/xlink" x="0px" y="0px"
	 viewBox="0 0 512 512" style="enable-background:new 0 0 512 512;" xml:space="preserve">
<path style="fill:#FCC63D;" d="M405.162,33.511v444.98c0,18.5-15.009,33.509-33.521,33.509H42.345
	c-18.512,0-33.509-15.009-33.509-33.509V33.511C8.836,15,23.834,0.002,42.345,0.002h329.296
	C390.153,0.002,405.162,15.001,405.162,33.511z"/>
<path style="fill:#EAEAEA;" d="M405.162,33.509v52.618H8.838V33.509C8.838,14.999,23.835,0,42.347,0h329.294
	C390.153,0,405.162,14.999,405.162,33.509z"/>
<circle style="fill:#F9572B;" cx="62.22" cy="42.22" r="17.259"/>
<circle style="fill:#FCC63D;" cx="120.332" cy="42.22" r="17.259"/>
<g>
	<circle style="fill:#45B8C4;" cx="178.434" cy="42.22" r="17.259"/>
	<circle style="fill:#45B8C4;" cx="403.836" cy="158.549" r="99.328"/>
</g>
<path style="fill:#FFFFFF;" d="M407.974,93.222c-10.446,0-19.891,1.743-28.073,5.182c-7.746,3.255-14.389,8.036-19.743,14.209
	c-10.125,11.674-15.476,28.068-15.476,47.411c0,19.863,5.809,36.314,16.797,47.578c9.771,10.014,23.331,15.53,38.185,15.53
	c5.089,0,13.665-0.72,21.089-2.752c5.604-1.534,12.285-4.311,12.285-8.83c0-2.495-2.074-7.149-6.04-7.149
	c-1.416,0-3.025,0.579-5.061,1.312c-3.859,1.39-9.692,3.489-19.503,3.489c-14.981,0-26.13-4.999-33.136-14.858
	c-5.866-8.255-8.84-19.865-8.84-34.507c0-15.652,3.37-28.052,10.015-36.858c7.928-10.504,20.545-15.831,37.501-15.831
	c15.513,0,27.255,4.444,34.9,13.206c7.392,8.474,11.14,21.199,11.14,37.82c0,4.559-0.316,11.128-1.818,16.54
	c-1.762,6.339-4.709,9.554-8.763,9.554c-3.644,0-5.654-2.7-6.517-8.735v-31.211c0-17.186-15-24.878-29.864-24.878
	c-12.528,0-26.541,5.348-26.541,12.504c0,3.079,2.473,8.996,5.856,8.996c1.201,0,2.423-0.633,3.97-1.433
	c2.895-1.499,6.861-3.553,14.13-3.553c10.117,0,14.829,4.066,14.829,12.798v2.639h-5.779c-25.067,0-37.252,7.473-37.252,22.847
	c0,14.761,11.66,21.369,23.216,21.369c9.031,0,16.352-3.94,23.02-12.393c1.896,7.977,9.676,13.316,19.458,13.316
	c8.909,0,16.141-4.325,20.912-12.508c4.286-7.35,6.551-17.566,6.551-29.545C469.421,116.123,446.45,93.222,407.974,93.222z
	 M420.218,162.001v5.595c0,7.577-8.077,15.013-16.307,15.013c-5.238,0-8.365-3.265-8.365-8.735c0-7.99,6.602-11.873,20.185-11.873
	L420.218,162.001L420.218,162.001z"/>
<g>
	<polygon style="fill:#424C59;" points="254.557,160.477 221.162,143.463 173.338,196.048 181.075,233.658 205.154,245.927 
		240.128,230.078 	"/>
	
		<rect x="155.275" y="192.468" transform="matrix(-0.891 -0.454 0.454 -0.891 186.9635 623.6284)" style="fill:#424C59;" width="26.138" height="193.805"/>
</g>
<path style="fill:#D8401D;" d="M163.291,377.755l-46.971,92.192c-6.033,11.841-20.006,16.996-32.128,12.252
	c-0.797-0.301-1.57-0.648-2.344-1.042l-17.793-9.066c-12.614-6.427-17.631-21.868-11.205-34.482l46.971-92.192
	c6.427-12.614,21.868-17.631,34.482-11.205l17.793,9.066c0.774,0.394,1.509,0.816,2.221,1.284
	C165.28,351.579,169.324,365.914,163.291,377.755z"/>
<path style="fill:#F9572B;" d="M163.291,377.755l-46.971,92.192c-6.033,11.841-20.006,16.996-32.128,12.252
	c-10.964-7.018-15.016-21.357-8.985-33.198l46.971-92.192c6.033-11.841,20.015-16.991,32.137-12.247
	C165.28,351.579,169.324,365.914,163.291,377.755z"/>
<g>
	<path style="fill:#424C59;" d="M370.379,359.47H234.456c-4.331,0-7.842-3.511-7.842-7.842s3.511-7.842,7.842-7.842H370.38
		c4.332,0,7.842,3.511,7.842,7.842S374.711,359.47,370.379,359.47z"/>
	<path style="fill:#424C59;" d="M370.379,397.808H234.456c-4.331,0-7.842-3.511-7.842-7.842s3.511-7.842,7.842-7.842H370.38
		c4.332,0,7.842,3.511,7.842,7.842S374.711,397.808,370.379,397.808z"/>
	<path style="fill:#424C59;" d="M370.379,436.145H234.456c-4.331,0-7.842-3.511-7.842-7.842s3.511-7.842,7.842-7.842H370.38
		c4.332,0,7.842,3.511,7.842,7.842S374.711,436.145,370.379,436.145z"/>
	<path style="fill:#424C59;" d="M370.379,474.482H234.456c-4.331,0-7.842-3.511-7.842-7.842c0-4.331,3.511-7.842,7.842-7.842H370.38
		c4.332,0,7.842,3.511,7.842,7.842C378.222,470.971,374.711,474.482,370.379,474.482z"/>
</g>
<g>
</g>
<g>
</g>
<g>
</g>
<g>
</g>
<g>
</g>
<g>
</g>
<g>
</g>
<g>
</g>
<g>
</g>
<g>
</g>
<g>
</g>
<g>
</g>
<g>
</g>
<g>
</g>
<g>
</g>
</svg>
