<?xml version="1.0" encoding="iso-8859-1"?>
<!-- Generator: Adobe Illustrator 21.0.0, SVG Export Plug-In . SVG Version: 6.00 Build 0)  -->
<svg version="1.1" id="Capa_1" xmlns="http://www.w3.org/2000/svg" xmlns:xlink="http://www.w3.org/1999/xlink" x="0px" y="0px"
	 viewBox="0 0 512 512" style="enable-background:new 0 0 512 512;" xml:space="preserve">
<g>
	<rect x="214.3" y="63.08" style="fill:#F92814;" width="83.4" height="226.29"/>
	<rect x="214.3" y="365.52" style="fill:#F92814;" width="83.4" height="83.4"/>
</g>
<g>
	<rect x="256" y="63.08" style="fill:#DB0404;" width="41.702" height="226.29"/>
	<rect x="256" y="365.52" style="fill:#DB0404;" width="41.702" height="83.4"/>
</g>
<g>
	<path style="fill:#DCE1EB;" d="M74.981,437.02C26.629,388.668,0,324.381,0,256S26.629,123.332,74.981,74.98l21.213,21.213
		C53.508,138.879,30,195.633,30,256s23.508,117.121,66.194,159.807L74.981,437.02z"/>
	<path style="fill:#DCE1EB;" d="M117.467,394.533C80.409,357.476,60,308.277,60,256s20.409-101.476,57.467-138.533l21.213,21.213
		C107.288,170.071,90,211.736,90,256s17.288,85.929,48.68,117.32L117.467,394.533z"/>
	<path style="fill:#DCE1EB;" d="M437.019,437.02l-21.213-21.213C458.492,373.121,482,316.367,482,256
		s-23.508-117.121-66.194-159.807l21.213-21.213C485.371,123.332,512,187.619,512,256S485.371,388.668,437.019,437.02z"/>
	<path style="fill:#DCE1EB;" d="M394.533,394.533L373.32,373.32C404.712,341.929,422,300.264,422,256s-17.288-85.929-48.68-117.32
		l21.213-21.213C431.591,154.524,452,203.723,452,256S431.591,357.476,394.533,394.533z"/>
</g>
<g>
	<path style="fill:#CDD2E1;" d="M74.981,437.02l21.213-21.213C53.508,373.121,30,316.367,30,256H0
		C0,324.381,26.629,388.668,74.981,437.02z"/>
	<path style="fill:#CDD2E1;" d="M117.467,394.533l21.213-21.213C107.288,341.929,90,300.264,90,256H60
		C60,308.277,80.409,357.476,117.467,394.533z"/>
	<path style="fill:#CDD2E1;" d="M415.806,415.807l21.213,21.213C485.371,388.668,512,324.381,512,256h-30
		C482,316.367,458.492,373.121,415.806,415.807z"/>
	<path style="fill:#CDD2E1;" d="M373.32,373.32l21.213,21.213C431.591,357.476,452,308.277,452,256h-30
		C422,300.264,404.712,341.929,373.32,373.32z"/>
</g>
<g>
</g>
<g>
</g>
<g>
</g>
<g>
</g>
<g>
</g>
<g>
</g>
<g>
</g>
<g>
</g>
<g>
</g>
<g>
</g>
<g>
</g>
<g>
</g>
<g>
</g>
<g>
</g>
<g>
</g>
</svg>
