<?xml version="1.0" encoding="iso-8859-1"?>
<!-- Generator: Adobe Illustrator 19.0.0, SVG Export Plug-In . SVG Version: 6.00 Build 0)  -->
<svg version="1.1" id="Capa_1" xmlns="http://www.w3.org/2000/svg" xmlns:xlink="http://www.w3.org/1999/xlink" x="0px" y="0px"
	 viewBox="0 0 511.999 511.999" style="enable-background:new 0 0 511.999 511.999;" xml:space="preserve">
<path style="fill:#FED9A8;" d="M474.062,335.295l-103.026,68.95l-30.704-1.723l-1.202-12.086
	c-1.789-17.99-15.641-32.428-33.541-34.961l-82.267-9.472c-18.977-2.685-37.249-9.045-53.793-18.722l0,0
	c-22.587-13.213-48.283-20.177-74.45-20.177H35.763v122.065l156.762,59.363c5.924,1.673,12.147,2.174,18.227,1.213
	c0.036-0.006,0.073-0.012,0.109-0.017l157.822-22.749c12.158-1.941,23.588-7.062,33.129-14.844l102.003-78.414
	c9.154-8.129,10.851-21.79,3.964-31.911l0,0C500.244,330.734,485.18,327.824,474.062,335.295z"/>
<path style="fill:#EDC18C;" d="M401.813,419.673c-9.542,7.782-20.971,12.903-33.129,14.844l-157.822,8.398
	c-0.036,0.006-0.073,0.012-0.109,0.017c-6.081,0.961-12.303,0.46-18.227-1.213L35.763,382.356v46.812l156.762,59.363
	c5.924,1.673,12.147,2.174,18.227,1.213c0.036-0.006,0.073-0.012,0.109-0.017l157.822-22.749
	c12.158-1.941,23.588-7.062,33.129-14.844l102.003-78.414c8.42-7.477,10.511-19.627,5.436-29.405L401.813,419.673z"/>
<path style="fill:#FF4C4C;" d="M66.208,475.157H8.986c-4.963,0-8.986-4.023-8.986-8.986v-181.25c0-4.963,4.023-8.986,8.986-8.986
	h57.221c4.963,0,8.986,4.023,8.986,8.986v181.25C75.194,471.133,71.171,475.157,66.208,475.157z"/>
<path style="fill:#E1EFFB;" d="M349.126,180.215l-29.169-29.169c-0.991-0.991-2.598-0.991-3.59,0l-33.63,33.63
	c-0.991,0.991-0.991,2.598,0,3.59l0.258,0.258c0.991,0.991,0.991,2.598,0,3.59l-19.863,19.863c-0.181,0.181-0.334,0.388-0.453,0.615
	l-9.976,19.001c-0.242,0.461-0.62,0.836-1.082,1.075l-18.126,9.37c-0.566,0.293-1.001,0.787-1.219,1.386l-5.832,16.001
	c-0.222,0.608-0.668,1.109-1.246,1.399l-20.754,10.414c-0.723,0.363-1.23,1.048-1.364,1.846l-4.289,25.373
	c-0.291,1.722,1.204,3.217,2.926,2.926l25.373-4.289c0.797-0.135,1.483-0.642,1.846-1.364l10.414-20.754
	c0.29-0.579,0.791-1.025,1.399-1.246l16.001-5.832c0.598-0.218,1.093-0.653,1.386-1.219l9.37-18.126
	c0.239-0.462,0.614-0.84,1.075-1.082l19.001-9.976c0.227-0.119,0.434-0.272,0.615-0.453l19.863-19.863
	c0.991-0.991,2.598-0.991,3.59,0l0.258,0.258c0.991,0.991,2.598,0.991,3.59,0l33.63-33.63
	C350.117,182.813,350.117,181.206,349.126,180.215z"/>
<path style="fill:#CCDFED;" d="M349.823,181.525c-0.008-0.042-0.027-0.082-0.037-0.124c-0.029-0.117-0.057-0.234-0.103-0.346
	c-0.02-0.048-0.051-0.092-0.073-0.139c-0.049-0.102-0.095-0.206-0.159-0.302c-0.008-0.012-0.019-0.022-0.027-0.033
	c-0.087-0.128-0.184-0.251-0.298-0.365l-6.715-6.715l-8.51-8.51L199.494,300.666c0.273,0.275,0.609,0.487,0.982,0.615
	c0.005,0.002,0.008,0.005,0.013,0.006c0.176,0.059,0.363,0.095,0.554,0.114c0.014,0.001,0.026,0.007,0.04,0.008
	c0.206,0.017,0.418,0.008,0.634-0.028l1.88-0.318l23.493-3.971c0.797-0.135,1.482-0.641,1.845-1.364l8.755-17.448l2.111-4.207
	l0.947-0.345l0,0l14.751-5.376l1.25-0.456c0.15-0.055,0.293-0.123,0.428-0.203c0.135-0.08,0.262-0.173,0.38-0.276
	c0.235-0.207,0.432-0.457,0.578-0.74l6.833-13.219l2.904-5.618l0.708-0.372l0,0l5.034-2.643l13.967-7.333
	c0.227-0.119,0.434-0.271,0.615-0.452l0,0l0,0l19.863-19.863c0.991-0.991,2.598-0.991,3.589,0l0,0l0,0l0.258,0.258
	c0.183,0.183,0.391,0.32,0.607,0.435c0.224,0.119,0.458,0.214,0.703,0.262c0.16,0.031,0.322,0.046,0.485,0.046
	c0.41,0,0.816-0.11,1.187-0.308c0.217-0.115,0.425-0.253,0.607-0.435l33.63-33.63C349.745,183.185,349.978,182.325,349.823,181.525z
	"/>
<path style="fill:#2C5871;" d="M468.23,86.704l-54.762-54.762c-14.797-14.797-39.221-13.244-52.026,3.306l-62.306,80.536
	c-10.725,13.863-9.475,33.537,2.919,45.93l36.402,36.402c12.394,12.394,32.068,13.644,45.93,2.919l80.536-62.306
	C481.475,125.925,483.027,101.5,468.23,86.704z M443.316,119.969L443.316,119.969c-4.442,4.442-11.645,4.442-16.088,0
	l-47.025-47.025c-4.442-4.442-4.442-11.645,0-16.088c4.442-4.442,11.645-4.442,16.088,0l47.025,47.025
	C447.758,108.324,447.758,115.526,443.316,119.969z"/>
<path style="fill:#1D4859;" d="M468.23,86.704l-54.762-54.762l-0.001-0.001l24.181,24.181c12.518,12.518,13.332,31.924,3.266,45.358
	l2.401,2.401c4.442,4.442,4.442,11.645,0,16.088l0,0c-4.442,4.442-11.645,4.442-16.087,0l-3.562-3.562l-69.86,54.046
	c-13.863,10.725-33.537,9.475-45.93-2.919l-5.82-5.82l0,0l36.402,36.402c12.394,12.394,32.067,13.644,45.93,2.919l80.536-62.306
	C481.475,125.925,483.027,101.5,468.23,86.704z"/>
<path style="fill:#F33A3A;" d="M66.208,275.934H37.597v168.77c0,6.817-5.526,12.343-12.343,12.343H8.986
	c-4.963,0-8.986-4.023-8.986-8.986v18.11c0,4.963,4.023,8.986,8.986,8.986h57.221c4.963,0,8.986-4.023,8.986-8.986v-181.25
	C75.194,279.957,71.171,275.934,66.208,275.934z"/>
<path style="fill:#EDC18C;" d="M339.728,402.488l-162.771-6.513c-6.905-0.276-13.333-3.594-17.558-9.062l-4.965-6.426
	c-1.592-2.06,0.133-5.01,2.708-4.634L339.728,402.488z"/>
<g>
</g>
<g>
</g>
<g>
</g>
<g>
</g>
<g>
</g>
<g>
</g>
<g>
</g>
<g>
</g>
<g>
</g>
<g>
</g>
<g>
</g>
<g>
</g>
<g>
</g>
<g>
</g>
<g>
</g>
</svg>
